HIERARCHY
ROOT root
{
	OFFSET 0.000000 0.000000 0.000000
	CHANNELS 6 Xposition Yposition Zposition Zrotation Yrotation Xrotation
	JOINT lhip
	{
		OFFSET 0.058581 -0.082280 -0.017664
		CHANNELS 3 Zrotation Yrotation Xrotation
		JOINT lknee
		{
			OFFSET 0.043451 -0.386469 0.008037
			CHANNELS 3 Zrotation Yrotation Xrotation
			JOINT lankle
			{
				OFFSET -0.014790 -0.426874 -0.037428
				CHANNELS 3 Zrotation Yrotation Xrotation
				JOINT ltoe
				{
					OFFSET 0.041054 -0.060286 0.122042
					CHANNELS 3 Zrotation Yrotation Xrotation
					End Site
					{
						OFFSET 0.000000 0.000000 0.000000
					}
				}
			}
		}
	}
	JOINT rhip
	{
		OFFSET -0.060310 -0.090513 -0.013543
		CHANNELS 3 Zrotation Yrotation Xrotation
		JOINT rknee
		{
			OFFSET -0.043257 -0.383688 -0.004843
			CHANNELS 3 Zrotation Yrotation Xrotation
			JOINT rankle
			{
				OFFSET 0.019056 -0.420046 -0.034562
				CHANNELS 3 Zrotation Yrotation Xrotation
				JOINT rtoe
				{
					OFFSET -0.034840 -0.062106 0.130323
					CHANNELS 3 Zrotation Yrotation Xrotation
					End Site
					{
						OFFSET 0.000000 0.000000 0.000000
					}
				}
			}
		}
	}
	JOINT lowerback
	{
		OFFSET 0.004439 0.124404 -0.038385
		CHANNELS 3 Zrotation Yrotation Xrotation
		JOINT upperback
		{
			OFFSET 0.004488 0.137956 0.026820
			CHANNELS 3 Zrotation Yrotation Xrotation
			JOINT chest
			{
				OFFSET -0.002265 0.056032 0.002855
				CHANNELS 3 Zrotation Yrotation Xrotation
				JOINT lowerneck
				{
					OFFSET -0.013390 0.211636 -0.033468
					CHANNELS 3 Zrotation Yrotation Xrotation
					JOINT upperneck
					{
						OFFSET 0.010113 0.088937 0.050410
						CHANNELS 3 Zrotation Yrotation Xrotation
						End Site
						{
							OFFSET 0.000000 0.000000 0.000000
						}
					}
				}
				JOINT lclavicle
				{
					OFFSET 0.071702 0.114000 -0.018898
					CHANNELS 3 Zrotation Yrotation Xrotation
					JOINT lshoulder
					{
						OFFSET 0.122921 0.045205 -0.019046
						CHANNELS 3 Zrotation Yrotation Xrotation
						JOINT lelbow
						{
							OFFSET 0.255332 -0.015649 -0.022946
							CHANNELS 3 Zrotation Yrotation Xrotation
							JOINT lwrist
							{
								OFFSET 0.265709 0.012698 -0.007375
								CHANNELS 3 Zrotation Yrotation Xrotation
								End Site
								{
									OFFSET 0.000000 0.000000 0.000000
								}
							}
						}
					}
				}
				JOINT rclavicle
				{
					OFFSET -0.082954 0.112472 -0.023707
					CHANNELS 3 Zrotation Yrotation Xrotation
					JOINT rshoulder
					{
						OFFSET -0.113228 0.046853 -0.008472
						CHANNELS 3 Zrotation Yrotation Xrotation
						JOINT relbow
						{
							OFFSET -0.260127 -0.014369 -0.031269
							CHANNELS 3 Zrotation Yrotation Xrotation
							JOINT rwrist
							{
								OFFSET -0.269108 0.006794 -0.006027
								CHANNELS 3 Zrotation Yrotation Xrotation
								End Site
								{
									OFFSET 0.000000 0.000000 0.000000
								}
							}
						}
					}
				}
			}
		}
	}
}
MOTION
Frames: 17
Frame Time: 0.033333
0.028611 0.262137 0.986699 95.687237 0.589655 84.459589 3.031333 2.055264 16.135749 -6.816642 -14.598607 0.461779 2.955190 8.287233 -19.284780 0.000000 -0.000000 0.000000 -3.125819 0.757066 -21.513763 0.774838 -15.026451 37.099538 5.955604 -9.869227 -15.443279 0.000000 -0.000000 0.000000 -2.457533 -4.449243 11.124542 2.778283 -0.831531 -0.149368 0.816742 -2.415853 0.244838 2.956600 6.159252 -7.764071 0.611799 -2.103221 3.230986 -25.571200 3.667863 -0.411042 -59.784734 -14.560064 11.883729 17.402833 -38.428837 8.429993 -8.646864 -8.456528 -5.630929 30.360669 -8.705788 1.531444 60.169278 -8.953015 8.293956 -25.867119 17.099600 -1.383062 17.764652 1.583387 3.395960 
0.074573 0.261694 0.977883 97.916838 0.399762 84.498989 4.916668 3.061117 19.951376 -7.553804 -16.331403 -0.437055 1.685705 6.600471 -20.550254 0.000000 -0.000000 0.000000 -3.985649 -0.566932 -22.702256 1.418647 -15.243119 24.294793 7.106020 -9.778044 -13.595692 0.000000 -0.000000 0.000000 -2.422272 -5.025234 11.418569 2.909020 -1.749668 0.074983 1.220045 -3.236848 0.110693 1.960459 6.066905 -7.522383 1.531970 -2.152948 1.994325 -24.316896 2.068155 -0.525801 -58.579685 -19.672352 12.264229 17.142342 -41.712739 7.248256 -4.436589 -10.458065 -6.907534 29.821516 -10.455774 1.854217 60.568508 -12.252807 7.051280 -27.022641 16.874693 -2.009709 15.299818 0.732526 3.834563 
0.120464 0.261764 0.965492 100.230270 -0.165025 84.961814 6.553155 4.083555 22.046693 -8.385986 -18.122113 0.849068 1.015869 4.921716 -21.985733 0.000000 -0.000000 0.000000 -4.726358 -2.771067 -23.835280 2.425224 -12.174756 13.031258 4.807500 -8.978405 -14.167038 0.000000 -0.000000 0.000000 -2.429656 -5.369643 11.080213 2.917715 -2.935655 0.555313 1.389700 -4.556071 0.131853 1.047715 6.080756 -7.901580 2.024602 -1.719461 0.957931 -23.182669 0.779226 -0.814892 -56.903059 -23.885226 11.938496 18.067548 -45.654197 4.677431 -2.964000 -8.876942 -8.915259 29.437432 -12.119886 1.901000 60.328921 -14.856410 6.163755 -27.353347 17.368664 -3.457859 14.873005 -0.349158 2.968950 
0.167095 0.261081 0.953431 102.127515 -1.032142 85.910069 7.338442 4.779485 23.173238 -8.517884 -19.762928 2.825031 0.168085 4.017312 -23.173814 0.000000 -0.000000 0.000000 -5.865584 -4.984213 -25.662631 3.406579 -9.881942 6.740127 8.566817 -7.652117 -12.039568 0.000000 -0.000000 0.000000 -2.634336 -5.656297 10.261646 2.904354 -3.892345 0.876684 1.397158 -5.824520 0.337067 0.654633 6.544378 -8.923691 1.809830 -1.313577 0.576315 -22.930540 0.659006 -1.066945 -54.436263 -27.728735 11.058443 19.491640 -49.404637 2.140880 -1.753953 -11.009604 -8.621315 29.855305 -13.868916 1.042371 58.781300 -16.641446 5.718222 -26.937470 17.618392 -4.819096 15.831880 0.278306 2.614421 
0.216867 0.260124 0.945035 103.562180 -1.247193 86.595009 8.412545 4.470657 23.826497 -8.961880 -21.509010 6.616901 -1.249976 3.611578 -22.766628 0.000000 -0.000000 0.000000 -7.363677 -3.934399 -26.148592 4.255746 -8.848552 4.533397 9.282406 -6.092792 -12.811898 0.000000 -0.000000 0.000000 -2.167734 -6.688023 9.546081 3.089618 -4.405366 1.006192 1.346099 -6.675912 0.376571 0.244244 6.771984 -9.347355 1.158953 -1.082375 0.224009 -22.755898 1.144212 -1.086970 -53.291222 -29.386462 10.810319 22.504126 -52.970052 -1.432939 -0.187464 -11.179925 -10.278611 29.897903 -15.039495 0.639632 57.165092 -17.602236 5.683616 -26.224299 17.926549 -5.238678 15.261906 0.454746 1.488151 
0.272611 0.258281 0.941107 104.061823 -0.827059 87.219385 9.055747 2.998599 24.769379 -8.746657 -23.424939 10.549812 -2.760748 4.233441 -20.528520 0.000000 -0.000000 0.000000 -7.192277 -2.677995 -27.055448 4.472781 -9.073821 9.656084 9.843182 -6.418711 -9.430762 0.000000 -0.000000 0.000000 -1.102616 -7.839944 7.522242 3.619259 -4.294598 2.268154 1.196079 -6.925099 0.163844 -0.527887 6.583924 -9.430428 0.183297 0.073180 -0.310399 -23.456298 1.702057 -0.753166 -52.775250 -29.291393 10.789736 26.658750 -55.997613 -5.990851 1.035250 -11.409887 -11.209510 29.945424 -15.521217 0.481685 55.455575 -18.409650 5.821952 -25.558995 18.307000 -5.299042 14.845223 0.533521 0.301200 
0.327382 0.254547 0.942126 101.574497 -0.198883 88.214468 7.797605 1.669749 24.128317 -8.708778 -21.865284 16.522037 -3.083810 5.610660 -15.173417 0.000000 -0.000000 0.000000 -6.010401 -0.130572 -30.030131 3.987642 -9.688199 17.782500 10.362006 -6.490725 -3.157365 0.000000 -0.000000 0.000000 0.145804 -8.480508 6.395900 4.130109 -2.656063 2.227111 1.015275 -6.135124 0.063386 -0.996215 6.394377 -10.380974 -1.032131 0.993121 0.257247 -25.165883 3.073716 -1.138858 -52.792782 -27.638554 11.205848 29.121344 -57.590290 -9.867404 1.875832 -11.705488 -10.826086 30.954803 -15.373146 0.747661 53.556591 -17.819406 6.574206 -25.502989 17.744610 -6.632009 13.843201 0.284916 0.399819 
0.384237 0.249974 0.946726 99.438950 1.731409 88.453496 7.114471 0.158395 21.260178 -8.291633 -16.585281 26.305071 -4.667961 7.199373 -2.357001 0.000000 -0.000000 0.000000 -3.176123 2.818085 -31.279532 2.931190 -10.216779 25.703894 6.495919 -6.672896 -5.200149 0.000000 -0.000000 0.000000 2.840421 -9.255687 6.151028 4.868632 -1.633527 2.379739 0.549611 -5.284343 -0.377884 -1.835599 6.792661 -11.260825 -2.037518 2.438497 0.643019 -26.991344 4.245410 -0.948052 -53.101774 -24.308805 11.339203 32.078025 -58.461824 -13.477683 1.961664 -10.661024 -10.926798 31.382221 -14.209644 1.452552 52.565527 -16.463636 6.726624 -25.755433 17.931538 -6.333690 13.023206 -0.358297 -0.421053 
0.438759 0.245036 0.951376 96.797305 2.609559 87.488824 5.286653 -2.222816 17.854440 -7.701347 -9.529262 37.440746 -6.315705 8.565341 8.777193 0.000000 -0.000000 0.000000 -1.055284 5.528598 -28.223035 3.984099 -9.657060 28.329097 0.780199 -6.773189 -8.647512 0.000000 -0.000000 0.000000 4.031196 -8.355351 5.846676 5.118240 -1.899163 5.442409 0.026869 -3.861577 -1.600488 -1.998820 7.108311 -11.391086 -2.065363 2.907184 -0.194089 -26.163924 3.543731 -0.504943 -55.597857 -20.160431 11.332849 34.486851 -57.195253 -16.616859 0.415189 -9.691219 -11.107911 30.853151 -11.061936 2.837781 54.971122 -14.555760 5.630857 -26.721444 18.939441 -7.437720 11.853569 -1.177614 -0.125248 
0.490059 0.243151 0.957770 96.028006 2.442737 87.001260 3.831486 -3.013394 12.279163 -6.410947 -5.356643 48.276175 -4.361975 12.728674 14.435078 0.000000 -0.000000 0.000000 0.708020 4.293565 -24.142995 4.446016 -7.620068 28.902021 -2.003743 -7.092549 -12.043470 0.000000 -0.000000 0.000000 4.013629 -6.423261 7.205949 5.246003 -1.445928 3.982271 0.248669 -4.318014 -1.215214 -1.969066 5.903238 -12.468266 -2.415546 3.489822 1.602764 -26.784309 3.982738 -0.242039 -57.662708 -17.532468 10.567676 29.408912 -54.744288 -10.924562 0.579556 -9.857094 -10.254106 30.593960 -9.656243 2.584362 55.973572 -12.026251 5.666152 -26.799249 19.475502 -7.237425 12.715585 -1.265783 0.233991 
0.538172 0.241546 0.966378 95.165748 2.039893 86.954122 3.026634 -3.178554 6.116641 -6.209961 -2.966371 55.626552 -2.141678 12.928915 4.532948 0.000000 -0.000000 0.000000 1.571877 3.722120 -19.663141 4.450821 -6.396722 27.592938 -1.846710 -6.468101 -14.491231 0.000000 -0.000000 0.000000 3.604655 -4.522015 7.627053 5.328219 -1.413598 3.196722 0.314299 -3.606526 -1.009893 -1.397947 5.226305 -11.447895 -3.308454 3.125270 2.212218 -27.672346 4.227156 0.059959 -59.383867 -14.992475 9.781485 23.877091 -50.369972 -3.429530 -2.007058 -8.725658 -8.248213 30.816604 -8.225310 2.601462 56.530005 -8.487766 6.226491 -26.824950 20.310496 -5.890366 11.930682 -0.968465 -0.228207 
0.586228 0.240313 0.975505 93.123461 1.414938 86.385624 2.255974 -2.194334 0.545434 -4.234645 -0.134108 58.815994 1.106806 11.407290 -1.759715 0.000000 -0.000000 0.000000 2.738095 2.851906 -14.261721 4.048406 -3.116854 25.217310 -2.216587 -6.000872 -16.402362 0.000000 -0.000000 0.000000 2.851113 -2.220171 8.231864 5.113720 -1.190407 2.707669 0.599191 -2.856695 -0.708268 -1.136478 4.473956 -10.203463 -3.746395 3.383673 2.815008 -28.317993 4.398697 0.870093 -60.920422 -11.908169 8.236434 19.814615 -44.894196 3.139784 -4.213468 -8.894981 -6.843076 30.436468 -6.448352 2.934398 57.345543 -4.072774 6.491068 -26.640268 22.487028 -4.895269 11.465405 0.250584 -0.237768 
0.633633 0.238738 0.985056 91.887012 1.115566 85.394305 2.306916 -1.260555 -4.333631 -3.359365 1.623319 58.397246 1.799393 11.780062 -6.854745 0.000000 -0.000000 0.000000 3.776530 0.715428 -8.039743 2.913067 -1.221033 21.807888 -1.704473 -3.630221 -17.834112 0.000000 -0.000000 0.000000 2.680046 -0.203219 9.810351 4.907680 -1.632211 0.964921 0.454267 -2.137735 0.490979 -0.498266 5.037827 -9.467484 -4.542177 2.452892 2.910214 -28.815325 5.073375 0.426508 -61.468241 -7.536415 9.668444 16.602850 -39.296176 8.486614 -3.978034 -6.222681 -8.429777 30.703869 -5.379148 1.163165 56.780518 -0.003152 9.264993 -25.631340 24.744098 -3.828627 8.550669 1.952187 -1.575356 
0.680703 0.238365 0.991483 90.922391 0.595703 84.654047 2.413393 -1.720328 -8.742308 -3.699062 3.884271 54.680407 1.440567 11.846614 -11.529398 0.000000 -0.000000 0.000000 3.000814 -0.884762 -0.964916 3.603837 0.000517 16.648699 -1.141126 -2.234375 -18.045919 0.000000 -0.000000 0.000000 2.636430 1.771780 10.750465 4.417828 -2.153095 0.310915 0.300702 -1.811450 0.524011 0.146707 5.238686 -8.379413 -5.280901 2.170201 3.557244 -28.727172 5.429257 1.176920 -62.299239 -3.116218 9.296276 14.798604 -33.721146 13.165766 -7.400389 -6.514092 -7.166992 30.169418 -3.706653 0.813761 56.664087 3.842114 10.250263 -24.518262 28.467425 -2.648677 7.924533 3.482169 -2.776324 
0.726085 0.237812 0.992813 89.230063 0.188454 84.742614 3.061895 -1.685353 -12.705523 -3.143030 7.382192 47.455190 1.581339 11.477385 -13.220455 0.000000 -0.000000 0.000000 1.733355 -2.320240 4.485579 4.717595 0.856555 12.389161 -0.835532 -0.412483 -18.318507 0.000000 -0.000000 0.000000 2.538652 3.871450 10.379132 3.989681 -2.244461 0.732009 0.146592 -1.331621 0.366103 0.961164 6.144307 -7.810587 -6.017680 1.438845 4.160626 -29.218875 5.867213 1.847422 -61.990759 1.489684 8.824249 13.876851 -30.476288 17.712709 -15.036820 -5.772713 -3.832963 29.834686 -2.070492 0.805323 55.785234 8.170746 10.615838 -23.876840 33.163683 -2.586299 9.050733 4.992939 -4.180982 
0.772097 0.237046 0.990488 87.035261 0.130897 84.757361 3.990428 -1.217853 -15.148931 -3.083862 10.649353 37.268348 1.172880 11.939809 -13.641705 0.000000 -0.000000 0.000000 0.493630 -3.178387 9.887325 5.542587 2.536573 8.802831 -0.571545 1.379190 -18.317681 0.000000 -0.000000 0.000000 2.874027 5.448872 10.024815 3.416374 -1.809555 1.594701 -0.170481 -0.678804 0.007329 1.968667 6.979433 -7.650929 -6.761305 0.636595 4.534610 -29.829701 6.800031 2.142768 -60.574383 6.495264 8.370248 12.290850 -29.740210 22.687251 -23.301707 -4.445615 -0.131255 29.598440 -0.680965 0.875223 54.514586 12.730388 10.576282 -23.436166 37.448475 -3.392508 10.723249 6.121227 -5.498439 
0.817811 0.236930 0.984290 84.757302 0.216545 84.868415 4.849735 -0.246178 -16.414056 -4.062535 12.209330 24.670925 0.171378 11.596533 -13.696988 0.000000 -0.000000 0.000000 -1.425287 -4.220105 14.686709 6.868342 4.731592 6.413657 0.215086 2.991821 -18.367159 0.000000 -0.000000 0.000000 3.341290 6.538660 9.743151 2.799440 -1.320964 2.142682 -0.536621 0.182254 -0.117014 2.976035 7.967875 -7.676977 -7.550940 -0.062319 4.963977 -30.353639 8.850729 2.048304 -58.861971 10.998332 8.280112 9.744139 -29.530121 26.160633 -25.187368 -4.257019 2.253275 29.392712 0.648095 0.735501 52.881385 17.507271 10.824724 -22.818580 40.903894 -4.787958 8.592667 7.836340 -5.403112 
